<?xml version="1.0" standalone="no"?>
<!DOCTYPE svg PUBLIC "-//W3C//DTD SVG 20010904//EN"
 "http://www.w3.org/TR/2001/REC-SVG-20010904/DTD/svg10.dtd">
<svg version="1.0" xmlns="http://www.w3.org/2000/svg"
 width="1592.000000pt" height="1592.000000pt" viewBox="0 0 1592.000000 1592.000000"
 preserveAspectRatio="xMidYMid meet">

<g transform="translate(0.000000,1592.000000) scale(0.100000,-0.100000)"
fill="#000000" stroke="none">
<path d="M1193 13621 c-43 -11 -134 -56 -161 -80 -25 -21 -58 -90 -67 -141 -4
-24 72 -466 250 -1455 214 -1189 277 -1521 390 -2040 84 -386 143 -636 156
-663 44 -86 169 -172 251 -172 142 1 253 73 288 188 11 35 20 81 20 103 0 21
-66 334 -146 696 l-146 658 15 94 c17 106 64 213 141 318 103 140 261 223 428
223 102 0 165 -28 255 -113 93 -89 164 -195 252 -378 163 -340 237 -607 266
-963 16 -198 24 -246 57 -311 62 -124 204 -175 359 -129 64 19 155 92 175 141
22 52 27 193 15 388 -22 340 -66 570 -166 870 -132 397 -251 611 -450 811
-153 153 -325 254 -469 275 -84 12 -269 11 -362 -2 -215 -30 -464 -147 -636
-299 -33 -28 -49 -37 -52 -28 -3 7 -73 418 -156 912 -83 495 -156 909 -162
920 -22 41 -114 129 -160 152 -52 26 -136 37 -185 25z"/>
<path d="M4321 13474 c-87 -23 -167 -72 -231 -141 -75 -80 -106 -167 -96 -267
17 -168 159 -310 322 -324 154 -12 247 85 319 334 44 152 28 240 -59 330 -39
40 -64 56 -105 68 -65 19 -80 19 -150 0z"/>
<path d="M10050 13139 c-229 -48 -408 -130 -557 -257 l-52 -44 -74 46 c-95 59
-257 127 -310 129 l-41 2 -8 -55 c-21 -144 -27 -183 -32 -187 -2 -2 -35 5 -73
16 -140 42 -256 55 -493 55 -183 1 -239 -2 -302 -17 -74 -17 -99 -36 -75 -55
7 -5 37 -19 67 -32 62 -26 227 -117 235 -129 2 -5 -21 -12 -53 -15 -222 -26
-482 -90 -482 -119 0 -6 28 -55 62 -111 36 -59 57 -101 50 -104 -34 -11 -199
-96 -268 -137 -170 -103 -369 -271 -454 -383 -70 -94 -68 -102 26 -102 l76 0
-51 -57 c-214 -239 -418 -554 -438 -677 -7 -43 3 -48 56 -30 24 8 46 13 48 10
3 -3 -9 -41 -26 -85 -56 -145 -78 -285 -47 -297 7 -3 29 4 47 15 19 12 37 21
40 21 3 0 2 -26 -3 -57 -6 -32 -8 -123 -5 -203 6 -156 27 -264 70 -362 l25
-56 -39 -208 c-46 -246 -66 -418 -79 -684 -7 -155 -19 -257 -60 -498 -91 -549
-111 -799 -91 -1135 43 -750 70 -965 148 -1177 44 -121 261 -560 348 -705 66
-110 201 -306 284 -410 l43 -55 -30 -82 c-16 -46 -33 -103 -37 -127 -4 -25
-21 -62 -40 -87 -19 -24 -36 -52 -40 -63 -5 -16 -19 -20 -93 -26 -313 -25
-502 -131 -757 -426 -124 -144 -468 -574 -770 -964 -136 -176 -250 -321 -254
-322 -17 -7 -93 193 -116 309 -52 255 -85 308 -219 349 l-69 22 6 59 c7 74 -6
119 -45 164 -37 42 -74 62 -152 84 l-59 16 -88 204 c-49 112 -98 213 -109 225
-13 13 -39 22 -74 25 l-54 5 63 135 c96 207 135 361 135 535 0 122 12 190 45
264 34 72 121 201 189 279 71 80 85 125 62 186 -24 62 -52 95 -100 117 -87 40
-182 19 -313 -67 -117 -78 -184 -155 -249 -292 -37 -78 -68 -127 -100 -158
-55 -56 -59 -54 -119 66 -105 210 -194 547 -235 890 -29 251 -45 309 -103 368
-36 38 -80 52 -160 52 -72 0 -113 -17 -154 -63 -78 -89 -79 -224 -3 -717 21
-140 42 -280 45 -310 l7 -55 -21 19 c-31 28 -124 168 -256 386 -210 347 -270
426 -353 462 -59 26 -119 19 -185 -24 -74 -47 -102 -96 -102 -178 0 -61 5 -77
52 -171 28 -57 94 -171 145 -254 73 -115 230 -378 276 -459 8 -14 -2 -7 -326
221 -166 118 -319 221 -339 230 -109 45 -245 -38 -274 -167 -14 -63 4 -114 64
-178 57 -60 261 -232 457 -387 167 -131 164 -127 79 -101 -41 13 -171 54 -289
91 -276 87 -327 88 -401 8 -40 -42 -52 -72 -53 -128 0 -38 6 -62 27 -97 43
-75 88 -100 404 -229 184 -75 363 -158 392 -182 8 -7 60 -82 116 -167 148
-226 238 -322 404 -430 l23 -15 -36 -54 c-20 -29 -36 -64 -36 -77 0 -14 43
-120 95 -237 52 -116 95 -216 95 -223 0 -6 -12 -37 -26 -69 -55 -120 -67 -220
-35 -290 10 -22 49 -73 88 -113 l70 -73 6 -152 c9 -258 -2 -230 445 -1067 151
-283 316 -599 367 -702 106 -214 153 -285 256 -383 169 -161 356 -250 572
-274 218 -25 439 34 622 164 83 59 164 147 349 378 87 108 160 197 161 197 1
0 1 -19 -1 -42 -3 -24 -11 -126 -19 -228 -14 -168 -46 -458 -61 -553 l-6 -37
86 0 c47 0 86 3 86 8 0 4 11 97 25 207 14 110 43 432 65 715 55 707 93 1025
176 1475 20 105 38 206 41 225 3 19 27 135 54 257 102 466 124 676 64 612 -38
-42 -184 -438 -236 -642 -91 -360 -192 -1008 -234 -1507 -9 -101 -19 -189 -23
-195 -3 -5 -122 -155 -264 -331 -279 -348 -328 -397 -463 -464 -276 -135 -579
-94 -836 116 -100 82 -142 142 -269 390 -64 126 -241 461 -392 744 -364 681
-363 679 -384 786 -23 124 -15 265 19 359 31 84 23 104 -25 58 l-33 -30 -79
84 c-78 84 -78 85 -74 131 7 73 80 218 141 280 56 56 47 70 -18 27 -20 -15
-39 -25 -41 -23 -1 2 -46 99 -99 217 -63 140 -94 219 -90 232 11 35 138 153
226 212 156 103 396 206 565 241 38 8 112 18 165 22 l95 6 83 -188 c45 -104
83 -197 84 -207 2 -14 -11 -23 -53 -36 -30 -10 -68 -25 -85 -35 l-30 -17 40 5
c140 18 153 18 246 -3 52 -12 101 -26 109 -31 11 -7 15 -29 15 -94 l0 -85 -60
-6 c-33 -3 -100 -14 -150 -23 l-90 -17 156 -6 c143 -5 160 -7 211 -32 31 -15
79 -34 108 -43 64 -19 71 -34 111 -229 19 -92 41 -167 65 -220 132 -290 339
-725 504 -1060 200 -406 238 -496 270 -629 29 -118 44 -124 80 -29 31 83 36
166 15 259 -14 62 -51 146 -170 384 -84 168 -210 426 -280 573 l-127 268 28
37 c158 210 662 852 884 1127 346 428 489 534 746 548 l102 6 7 -37 c23 -126
248 -460 457 -678 76 -79 78 -82 78 -132 0 -28 -7 -104 -15 -169 -45 -340
-138 -675 -275 -987 -36 -82 -44 -94 -75 -105 -44 -15 -99 -80 -120 -140 -10
-25 -19 -91 -22 -146 -5 -96 -8 -108 -83 -295 -86 -215 -133 -358 -155 -462
-17 -79 -19 -150 -6 -164 6 -5 6 -27 1 -54 -5 -25 -9 -62 -10 -83 0 -32 4 -39
26 -48 32 -12 61 -4 68 19 3 9 10 46 16 81 6 35 15 71 21 80 5 9 20 65 35 125
31 130 87 303 152 464 l47 117 33 -3 c121 -12 214 118 216 303 1 74 -3 97 -20
129 l-21 39 44 101 c133 305 229 646 267 945 9 69 18 126 20 128 6 7 53 -46
119 -135 112 -151 71 -47 -62 156 -71 108 -79 153 -36 204 14 16 25 41 25 54
0 57 -56 121 -113 131 -54 8 -85 -3 -103 -39 -16 -31 -16 -31 -33 -11 -9 12
-50 63 -92 115 -104 128 -203 269 -233 331 -35 74 -48 157 -35 217 13 59 57
124 104 152 36 21 42 34 65 150 l11 58 57 -56 c31 -31 72 -67 90 -81 26 -21
32 -32 32 -62 0 -120 59 -272 205 -526 149 -259 249 -469 309 -652 15 -46 30
-83 32 -83 2 0 44 34 92 75 154 133 396 280 569 345 117 44 583 183 739 221
340 81 858 176 1289 234 272 37 383 71 414 128 54 101 -124 212 -488 303 -96
24 -184 44 -195 44 -12 -1 38 -25 110 -54 167 -67 324 -143 397 -189 64 -41
74 -68 30 -85 -69 -26 -110 -34 -337 -67 -132 -20 -321 -49 -420 -66 -98 -16
-181 -27 -184 -24 -6 6 19 180 61 429 l22 129 90 38 c50 21 99 38 111 39 11 0
97 -22 190 -49 413 -120 663 -229 790 -344 108 -98 120 -184 53 -369 -54 -149
-55 -158 -29 -228 13 -34 21 -62 19 -64 -2 -2 -67 1 -144 7 -101 7 -197 7
-345 -2 -485 -27 -993 -112 -1776 -296 -151 -36 -277 -65 -279 -65 -3 0 -5 11
-5 25 0 34 -24 80 -52 99 -29 21 -103 20 -138 0 -41 -25 -63 -69 -56 -113 10
-62 -18 -84 -179 -145 -171 -65 -306 -126 -300 -136 3 -4 67 12 142 37 76 24
164 50 195 58 l57 13 -58 -116 c-59 -119 -130 -291 -171 -416 l-22 -68 -38 6
-37 6 -13 -86 c-9 -54 -19 -88 -27 -91 -13 -5 -122 13 -130 21 -3 2 3 43 12
91 9 48 15 88 13 90 -10 8 -78 14 -78 7 0 -6 -18 -109 -40 -231 -22 -121 -40
-229 -40 -240 0 -14 9 -20 35 -23 40 -5 38 -10 59 116 9 49 18 91 20 94 3 2
35 -1 71 -8 75 -14 72 -7 50 -130 -19 -108 -19 -110 5 -110 15 0 20 -7 20 -25
0 -14 -3 -25 -7 -25 -3 0 -71 12 -151 26 -79 14 -145 24 -147 22 -1 -2 -6 -22
-10 -45 l-6 -41 55 -7 c31 -4 56 -10 56 -14 0 -3 -16 -94 -35 -201 -27 -150
-32 -196 -22 -202 16 -10 67 -10 67 0 0 17 69 384 73 388 2 3 28 -1 56 -7 l52
-11 -5 -36 c-18 -116 -79 -477 -81 -480 -2 -2 -11 11 -21 28 -21 34 -86 70
-127 70 -111 0 -198 -135 -200 -311 -1 -131 56 -209 154 -209 26 0 57 8 75 19
l31 19 -22 -71 c-12 -40 -32 -97 -44 -127 -12 -30 -24 -69 -26 -86 -2 -16 -16
-56 -30 -87 -31 -71 -31 -82 0 -103 39 -26 62 -10 97 67 17 39 38 71 49 74 21
7 66 96 98 196 l22 66 92 -18 c51 -9 94 -16 95 -14 2 2 6 21 9 43 6 46 9 44
-105 62 -39 7 -70 15 -68 18 2 4 9 32 15 63 l12 56 76 -13 c42 -8 78 -12 79
-11 2 2 6 21 10 44 l6 41 -76 12 c-62 11 -76 16 -72 29 3 9 8 33 12 54 3 20 7
37 8 37 0 0 37 -7 80 -15 44 -9 83 -12 87 -8 3 5 9 24 13 44 l6 36 -80 13
c-44 7 -82 16 -85 20 -4 6 33 259 39 267 5 7 96 -21 96 -30 -1 -7 -9 -56 -19
-109 -20 -105 -19 -108 34 -108 25 0 20 -19 89 362 l22 126 -34 7 c-19 3 -36
4 -38 2 -4 -3 -34 -161 -34 -176 0 -6 -90 6 -97 13 -7 7 27 236 35 236 3 0 43
-7 90 -16 46 -8 85 -14 87 -12 1 2 6 22 10 44 l6 41 -79 13 c-43 6 -84 15 -91
19 -11 7 -6 49 14 117 2 8 24 7 76 -3 40 -7 76 -10 80 -6 3 5 9 24 12 44 l5
36 -74 13 c-41 7 -74 15 -74 17 0 2 5 25 11 50 l12 45 41 -6 c131 -22 124 -23
132 19 8 45 0 52 -72 61 -28 3 -56 9 -63 13 -22 14 99 325 216 552 l64 127
107 21 c59 12 202 44 317 71 772 181 1363 280 1760 296 l150 6 -75 -37 c-137
-67 -276 -186 -359 -308 -89 -130 -147 -306 -157 -472 l-6 -100 33 40 c18 22
61 69 95 105 47 50 64 76 73 113 55 227 247 426 486 506 218 72 438 60 625
-34 230 -116 353 -292 419 -599 66 -302 292 -1880 381 -2651 17 -148 33 -280
36 -292 4 -22 9 -23 87 -23 l83 0 -8 78 c-66 593 -272 2097 -364 2647 -55 332
-88 455 -167 610 -81 162 -239 310 -417 392 -41 19 -112 53 -156 76 l-81 41
-20 61 -19 60 23 60 c135 344 54 542 -297 724 -144 74 -226 107 -463 186
l-188 62 118 68 c340 196 439 292 628 610 54 92 166 313 215 428 30 68 37 77
55 72 197 -59 426 -38 607 57 154 80 542 445 657 617 111 168 206 393 242 576
20 102 18 324 -4 405 -25 88 -87 190 -162 265 l-62 63 19 31 c31 49 133 279
163 370 15 45 29 80 31 78 3 -2 18 -35 34 -73 40 -96 53 -93 113 26 168 337
214 1167 96 1718 -11 52 -18 96 -16 99 3 2 53 -14 112 -36 59 -22 111 -38 116
-35 16 10 9 44 -27 140 -72 192 -184 406 -286 542 -22 30 -38 56 -35 58 3 3
46 -18 96 -46 130 -73 139 -60 60 89 -172 322 -573 719 -991 981 -143 90 -397
217 -558 279 -191 74 -184 69 -120 73 30 1 107 3 170 3 141 0 149 12 45 67
-370 197 -759 292 -1340 329 -104 6 -270 9 -368 6 -98 -3 -177 -4 -175 -2 2 2
73 17 158 34 255 49 408 64 695 66 225 2 260 4 263 17 4 21 -12 26 -151 43
-321 40 -775 3 -1158 -95 -68 -17 -109 -24 -106 -16 2 6 12 34 21 63 10 28 34
78 55 110 21 32 36 64 33 71 -5 16 -17 15 -132 -9z m-2414 -2409 c29 -101 84
-190 171 -277 44 -46 86 -83 92 -83 28 0 18 33 -29 95 -58 77 -100 156 -128
241 -39 118 -37 124 14 54 63 -86 185 -207 259 -257 107 -72 344 -181 365
-168 18 11 11 26 -34 77 -25 28 -68 93 -97 145 -51 94 -128 266 -129 291 0 8
15 3 40 -13 79 -50 233 -95 324 -95 28 0 40 -9 83 -63 100 -124 264 -222 434
-258 52 -11 157 -22 234 -26 115 -5 145 -9 167 -25 51 -36 253 -127 360 -162
284 -94 633 -127 918 -86 41 6 66 6 70 0 60 -109 115 -194 166 -259 183 -232
528 -432 845 -490 l65 -13 12 -46 c7 -26 48 -121 92 -212 91 -189 119 -283
127 -425 7 -126 -9 -217 -123 -693 -46 -195 -82 -358 -78 -363 3 -5 14 -9 25
-9 10 0 31 -13 46 -30 27 -30 76 -50 126 -50 15 0 36 -5 46 -12 14 -9 29 -9
54 -1 28 8 36 7 44 -6 10 -14 15 -12 44 16 19 18 52 62 74 97 22 36 47 68 55
71 9 3 43 36 77 73 121 135 265 236 396 277 145 46 251 23 344 -74 93 -96 127
-193 125 -351 -4 -307 -164 -653 -419 -901 -352 -345 -480 -416 -723 -406 -94
3 -133 10 -211 36 -76 24 -103 29 -122 22 -36 -14 -61 -55 -54 -90 5 -21 -10
-64 -59 -172 -125 -280 -278 -534 -393 -652 -185 -192 -690 -450 -1201 -612
-359 -114 -544 -170 -664 -200 -724 -182 -1267 -93 -1624 267 -108 110 -357
442 -461 615 -100 168 -286 542 -336 677 -67 182 -93 351 -126 844 -38 556
-26 825 65 1357 63 368 65 386 76 627 11 254 32 405 106 778 65 327 116 530
186 740 58 173 67 185 187 266 l66 44 8 -37 c4 -21 15 -63 23 -93z m-3879
-4146 c22 -30 32 -80 59 -289 49 -389 136 -713 250 -935 24 -47 57 -101 73
-120 l29 -35 -87 -90 c-144 -151 -206 -284 -206 -445 0 -47 4 -102 8 -122 9
-43 38 -64 65 -49 15 8 17 27 17 143 0 113 4 141 22 186 48 119 153 245 293
352 117 90 164 146 219 265 37 78 65 121 106 165 70 72 164 135 228 151 44 11
51 10 75 -8 43 -32 39 -54 -24 -124 -106 -119 -200 -279 -229 -394 -8 -34 -15
-103 -15 -161 0 -195 -40 -348 -152 -584 l-70 -149 -117 -27 c-160 -37 -295
-85 -436 -155 -107 -54 -260 -149 -337 -211 l-28 -22 -84 57 c-118 81 -202
175 -331 372 -82 124 -123 177 -152 197 -63 42 -189 102 -350 168 -299 123
-364 154 -389 183 -13 16 -24 38 -24 50 0 28 38 67 67 67 12 0 195 -54 405
-121 405 -128 419 -130 465 -87 26 25 29 57 9 97 -8 15 -115 107 -238 203
-236 185 -429 344 -515 425 -61 57 -67 85 -28 131 32 38 57 44 97 23 18 -9
191 -129 383 -265 193 -137 366 -257 385 -267 88 -48 159 7 129 100 -12 36
-208 370 -379 645 -115 185 -170 298 -170 347 0 71 86 113 142 70 35 -28 110
-140 275 -409 171 -280 239 -377 315 -447 60 -56 98 -70 138 -52 64 31 63 98
-5 543 -65 425 -71 588 -23 636 17 17 29 19 71 15 33 -3 55 -11 64 -23z m6559
-1881 c-15 -74 -66 -418 -66 -446 0 -18 -4 -37 -8 -43 -4 -6 -77 -26 -162 -43
-457 -95 -938 -240 -1151 -347 -93 -46 -263 -162 -336 -228 -33 -31 -65 -56
-70 -56 -13 0 -75 134 -107 227 -14 40 -32 118 -42 174 -26 159 -7 376 35 398
13 7 248 20 374 21 17 0 27 5 27 15 0 12 14 15 68 15 150 0 455 48 672 106
107 29 419 124 615 189 161 52 158 52 151 18z m-2313 -122 c37 -19 34 -31 -8
-31 -31 0 -35 3 -35 26 0 14 3 24 8 22 4 -2 19 -10 35 -17z m267 -190 c0 -5
-7 -43 -16 -83 -10 -47 -16 -121 -16 -207 0 -81 -4 -128 -9 -120 -5 8 -9 19
-9 26 0 7 -31 65 -69 130 -65 112 -131 237 -131 247 0 3 44 7 98 9 53 1 109 4
125 5 15 1 27 -2 27 -7z m-266 -575 c19 -8 37 -20 41 -27 5 -7 -2 -5 -16 4
-30 21 -57 22 -81 0 -16 -15 -18 -15 -18 0 0 9 8 21 18 26 22 13 17 13 56 -3z
m11 -141 c13 -148 -23 -444 -81 -684 -58 -239 -138 -455 -299 -811 -189 -417
-307 -733 -357 -947 -21 -94 -25 -103 -46 -103 -33 0 -36 21 -17 118 33 167
136 444 308 827 207 461 282 656 342 890 57 221 105 544 105 706 0 89 3 101
25 93 9 -4 16 -35 20 -89z m1098 -133 c18 -16 23 -67 8 -76 -5 -4 -7 3 -4 14
3 11 -2 31 -11 45 -21 33 -70 34 -103 3 -20 -19 -23 -20 -17 -4 9 23 60 45 88
38 12 -3 29 -12 39 -20z m-43 -49 c0 -9 -22 -50 -49 -92 -142 -223 -291 -588
-370 -914 -43 -172 -60 -265 -117 -632 -86 -557 -197 -976 -257 -975 -39 1
-39 16 -3 113 75 200 143 507 221 999 25 152 52 311 60 355 89 433 258 855
446 1110 39 52 69 68 69 36z m-649 -66 c-8 -8 -11 -7 -11 5 0 9 -3 25 -6 35
-5 13 -1 11 11 -5 13 -18 14 -27 6 -35z m-724 -1341 c-9 -108 -62 -193 -115
-184 -16 3 -11 19 42 140 66 149 83 160 73 44z m578 -541 c14 -13 25 -35 25
-48 0 -18 7 -27 25 -31 29 -8 30 -16 9 -102 -16 -61 -18 -65 -40 -60 -17 5
-24 2 -24 -7 0 -26 -48 -67 -78 -67 -53 0 -75 29 -80 102 -11 166 86 291 163
213z m-1051 -512 c-3 -27 -11 -52 -16 -58 -7 -7 -8 -3 -5 10 3 11 8 37 12 58
9 54 17 45 9 -10z m992 -250 c-14 -26 -25 -45 -26 -41 -1 14 41 101 46 95 3
-3 -6 -27 -20 -54z"/>
<path d="M7647 9689 c-161 -39 -327 -149 -449 -297 -85 -102 -89 -110 -37 -78
78 49 202 104 294 131 108 33 301 45 411 26 151 -26 344 -96 645 -236 227
-105 242 -106 260 -25 11 49 4 100 -23 153 -50 101 -408 264 -715 326 -130 27
-278 27 -386 0z"/>
<path d="M9900 9274 c-14 -2 -59 -9 -100 -15 -91 -13 -145 -36 -184 -77 -37
-39 -68 -129 -55 -155 21 -38 49 -41 256 -28 268 15 574 14 703 -4 146 -20
237 -47 366 -110 138 -67 248 -149 354 -263 l81 -87 -21 60 c-122 359 -382
580 -763 649 -157 29 -525 46 -637 30z"/>
<path d="M7610 8999 c-153 -19 -342 -107 -452 -210 -56 -53 -63 -91 -18 -97
16 -2 41 -23 70 -60 93 -115 190 -164 420 -213 58 -12 166 -41 240 -65 242
-77 289 -86 485 -95 99 -4 197 -13 219 -19 31 -9 41 -9 48 2 23 34 -38 241
-104 353 -49 83 -170 211 -252 267 -76 53 -171 95 -265 119 -90 23 -282 32
-391 18z m263 -135 c4 -4 -14 -20 -38 -36 -86 -57 -143 -153 -152 -259 l-6
-60 -41 7 c-89 14 -192 45 -235 71 -47 27 -151 126 -151 143 0 24 183 97 311
125 65 14 300 20 312 9z m170 -104 c46 -51 27 -128 -37 -150 -69 -22 -128 18
-130 90 -1 36 4 46 33 72 28 25 39 29 70 24 23 -3 46 -17 64 -36z m384 -208
c41 -57 92 -160 93 -187 0 -7 -45 -10 -120 -10 -66 0 -120 3 -120 7 1 4 12 32
26 62 27 60 35 167 15 219 -6 16 -11 31 -11 35 0 13 74 -67 117 -126z"/>
<path d="M10105 8559 c-137 -18 -310 -84 -424 -161 -105 -73 -240 -229 -244
-284 -2 -27 -1 -27 108 -49 61 -12 124 -29 140 -37 99 -51 276 -85 515 -98 96
-6 258 -22 360 -36 258 -36 331 -29 494 51 50 25 73 32 86 25 12 -6 23 -5 36
4 16 12 17 18 6 52 -25 82 -178 257 -292 334 -109 74 -293 149 -450 184 -87
19 -248 27 -335 15z m54 -175 c-29 -28 -62 -73 -82 -113 -28 -58 -32 -75 -32
-149 l0 -84 -55 6 c-74 9 -159 31 -255 66 -44 16 -100 34 -125 40 l-45 12 72
68 c134 125 311 196 495 199 l77 1 -50 -46z m254 -12 c60 -40 73 -91 37 -149
-42 -69 -151 -63 -186 10 -47 99 59 198 149 139z m438 -149 c37 -24 98 -72
135 -107 l69 -63 -50 -25 c-69 -35 -141 -56 -195 -59 -81 -3 -79 -4 -64 39 22
62 17 178 -10 245 l-24 57 37 -21 c20 -12 66 -42 102 -66z"/>
<path d="M8757 8553 c-7 -13 -26 -100 -52 -245 -57 -312 -167 -561 -364 -823
-50 -66 -100 -138 -111 -160 -11 -22 -20 -37 -20 -32 0 14 -57 -22 -83 -52
-37 -45 -67 -133 -67 -199 0 -74 30 -135 88 -176 40 -28 44 -29 53 -13 15 26
23 22 69 -38 77 -100 261 -202 385 -212 63 -5 126 6 132 23 2 6 -38 23 -88 38
-146 43 -235 90 -304 160 -95 95 -135 208 -120 341 10 88 39 145 143 284 197
263 287 457 347 756 32 157 34 355 4 355 -4 0 -10 -3 -12 -7z m-563 -1343
c-18 -84 -18 -172 0 -240 8 -30 12 -58 10 -62 -11 -18 -23 -5 -49 53 -34 77
-31 126 15 238 19 44 35 80 36 78 1 -1 -4 -31 -12 -67z"/>
<path d="M12944 7880 c-130 -27 -354 -202 -523 -408 -85 -105 -102 -147 -111
-281 -8 -134 -29 -193 -89 -256 -54 -56 -81 -114 -81 -175 0 -136 96 -184 248
-124 89 35 192 91 217 116 l20 21 -20 -8 c-90 -36 -305 -105 -327 -105 -15 0
-39 10 -54 23 -22 19 -26 31 -26 70 2 60 12 78 83 154 73 76 97 130 109 249
16 149 39 195 173 344 32 36 77 80 99 98 l41 32 29 -27 c36 -35 64 -110 78
-214 19 -133 -3 -248 -64 -350 l-27 -44 55 57 c75 78 98 141 104 280 5 127
-14 230 -59 315 -16 30 -29 57 -29 59 0 1 21 17 47 35 60 42 128 67 233 88
l85 17 -27 18 c-32 21 -124 29 -184 16z"/>
<path d="M9320 6962 c0 -226 -64 -276 -265 -212 -83 27 -110 32 -163 27 -61
-5 -108 -28 -96 -48 3 -5 28 -9 55 -9 28 0 48 -4 45 -8 -2 -4 10 -6 27 -4 20
2 62 -8 110 -27 42 -17 94 -33 115 -37 172 -27 295 187 213 372 -31 69 -41 56
-41 -54z"/>
<path d="M7719 6510 c-68 -20 -105 -66 -86 -107 10 -23 17 -26 75 -38 21 -4
32 -12 32 -23 0 -36 69 -214 108 -279 197 -329 586 -503 1072 -480 363 18 621
123 870 353 54 50 62 55 93 49 41 -8 67 13 67 54 0 21 -12 40 -45 70 -24 22
-51 41 -58 41 -7 0 -28 -11 -47 -25 -31 -23 -42 -25 -144 -25 -662 1 -1267
107 -1740 306 -73 31 -90 42 -98 66 -15 44 -44 55 -99 38z m371 -286 c254 -89
594 -162 920 -199 116 -13 488 -34 630 -35 l45 -1 -40 -34 c-41 -36 -170 -118
-240 -153 -76 -38 -234 -82 -350 -97 -428 -56 -803 50 -1021 289 -54 58 -146
218 -169 294 l-6 22 53 -21 c29 -12 109 -41 178 -65z"/>
<path d="M8130 5512 c0 -45 172 -148 307 -183 100 -26 269 -35 345 -20 56 12
93 34 83 50 -2 5 -41 11 -85 14 -133 10 -515 96 -632 142 -10 4 -18 3 -18 -3z"/>
<path d="M4444 12311 c-52 -13 -101 -49 -133 -98 -33 -49 -70 -140 -77 -188
-5 -27 382 -2070 408 -2159 7 -21 31 -60 55 -86 55 -61 132 -90 240 -90 120 0
198 45 241 138 51 113 55 88 -163 1227 -120 633 -204 1048 -217 1076 -47 107
-245 208 -354 180z"/>
<path d="M4326 3659 c-104 -30 -202 -79 -291 -146 -95 -72 -147 -125 -75 -76
63 43 220 125 358 189 122 56 125 66 8 33z"/>
<path d="M7965 2780 c-4 -23 -5 -43 -3 -46 3 -2 26 -8 52 -13 26 -5 48 -10 50
-12 2 -2 -13 -93 -32 -201 -20 -109 -34 -199 -31 -202 2 -2 20 -6 38 -8 l35
-3 36 200 c20 110 40 199 46 199 5 -1 30 -5 55 -8 43 -6 47 -5 53 16 16 63 17
63 -124 87 -72 13 -139 25 -149 28 -16 4 -20 -3 -26 -37z"/>
<path d="M8960 2633 c0 -4 -18 -110 -41 -236 -22 -125 -39 -233 -36 -240 3 -7
28 -19 56 -26 141 -36 266 -180 327 -376 15 -48 19 -89 18 -210 -1 -130 -7
-178 -41 -360 -22 -115 -38 -212 -36 -214 3 -4 353 -70 353 -67 0 1 21 114 46
251 74 401 72 626 -6 867 -70 218 -203 406 -360 512 -82 54 -280 125 -280 99z"/>
<path d="M7116 2389 c-3 -13 -23 -123 -45 -244 -41 -233 -41 -238 9 -233 24 3
26 8 54 172 20 110 33 162 37 150 5 -10 25 -93 45 -184 21 -91 42 -168 48
-172 6 -4 25 -8 41 -8 l30 0 43 241 c24 133 42 242 40 244 -2 1 -17 6 -35 9
-30 7 -32 5 -38 -26 -39 -215 -53 -290 -57 -294 -3 -2 -22 73 -44 166 -21 94
-41 175 -44 180 -3 4 -22 11 -42 15 -33 6 -38 5 -42 -16z"/>
<path d="M7850 2279 c-1 -2 -20 -112 -44 -244 -24 -132 -42 -243 -39 -247 2
-5 19 -8 37 -8 l33 0 12 73 c22 125 15 115 74 105 78 -15 80 -18 72 -120 -7
-94 -9 -90 46 -102 l26 -6 7 104 c5 78 4 110 -6 125 -11 18 -10 23 10 37 50
35 69 133 37 194 -20 38 -53 54 -145 69 -41 7 -85 15 -97 18 -13 3 -23 4 -23
2z m178 -125 c29 -19 30 -76 1 -105 -17 -17 -28 -19 -62 -14 -80 12 -80 12
-72 63 12 85 11 85 63 77 26 -4 57 -13 70 -21z"/>
<path d="M8865 2087 c-6 -16 -85 -459 -85 -473 0 -6 13 -14 29 -17 42 -9 91
-55 117 -112 31 -66 31 -139 -2 -317 -14 -77 -24 -141 -22 -143 4 -4 229 -45
248 -45 14 0 24 44 60 246 37 217 42 258 38 352 -12 250 -142 453 -326 506
-40 12 -54 12 -57 3z"/>
<path d="M7516 1752 c-9 -43 -74 -415 -78 -441 -3 -21 2 -26 32 -32 19 -4 36
-6 38 -5 1 2 10 45 19 97 9 52 19 97 23 102 3 4 40 1 81 -7 79 -15 89 -12 89
32 0 12 1 25 3 29 1 4 -34 14 -78 23 -44 8 -79 17 -79 20 1 3 5 29 9 58 6 42
10 52 23 48 49 -13 154 -28 166 -23 7 3 16 22 18 42 5 41 15 36 -127 60 -49 9
-100 18 -112 20 -17 4 -23 -1 -27 -23z"/>
<path d="M7846 1659 c-13 -30 -60 -130 -105 -223 -45 -93 -81 -175 -81 -182 0
-8 9 -14 19 -14 11 0 26 -3 35 -6 10 -4 22 9 40 44 l25 50 48 -9 c98 -18 93
-14 93 -69 0 -46 2 -50 28 -56 15 -3 33 -7 40 -10 8 -2 12 9 12 34 0 56 -38
474 -44 479 -2 3 -23 7 -45 10 l-41 6 -24 -54z m58 -172 l6 -98 -37 6 c-21 4
-43 8 -50 10 -8 3 1 33 29 95 23 49 42 89 43 88 1 -2 5 -47 9 -101z"/>
<path d="M11010 1594 c-52 -36 -74 -58 -73 -71 7 -51 131 -863 178 -1166 30
-191 55 -350 55 -352 0 -3 38 -5 85 -5 47 0 85 2 85 4 0 2 -25 163 -56 357
-30 195 -86 561 -125 814 -38 253 -70 463 -72 466 -1 4 -36 -17 -77 -47z"/>
<path d="M8765 1538 c-2 -7 -20 -105 -40 -218 -19 -113 -38 -217 -41 -231 -5
-26 -4 -27 82 -43 48 -9 88 -15 90 -13 8 8 54 293 54 333 0 61 -27 122 -69
157 -34 29 -69 35 -76 15z"/>
</g>
</svg>
