<svg id="visual" viewBox="0 0 900 600" width="900" height="600" xmlns="http://www.w3.org/2000/svg" xmlns:xlink="http://www.w3.org/1999/xlink" version="1.1"><rect x="0" y="0" width="900" height="600" fill="#333"></rect><path d="M0 205L21.5 198.8C43 192.7 86 180.3 128.8 174.5C171.7 168.7 214.3 169.3 257.2 172.3C300 175.3 343 180.7 385.8 165.3C428.7 150 471.3 114 514.2 101.2C557 88.3 600 98.7 642.8 106.8C685.7 115 728.3 121 771.2 116.7C814 112.3 857 97.7 878.5 90.3L900 83L900 0L878.5 0C857 0 814 0 771.2 0C728.3 0 685.7 0 642.8 0C600 0 557 0 514.2 0C471.3 0 428.7 0 385.8 0C343 0 300 0 257.2 0C214.3 0 171.7 0 128.8 0C86 0 43 0 21.5 0L0 0Z" fill="#000000" stroke-linecap="round" stroke-linejoin="miter"></path></svg>